<svg width="720" height="720" 
    xmlns="http://www.w3.org/2000/svg" 
    xmlns:xlink="http://www.w3.org/1999/xlink" overflow="hidden">
        <path d="M95 22 447.106 22 624.984 199.878 624.984 698 95 698Z" fill="#536375" fill-rule="evenodd"/>
        <path d="M0 0 287.636 0 339 51.3643 339 214 339 214 51.3642 214 0 162.636 0 0Z" fill="#3B4653" fill-rule="evenodd" transform="matrix(-1 -8.74228e-08 -8.74228e-08 1 644 454)"/>
        <path d="M0 0 432.396 0 484 51.6044 484 215 484 215 51.6044 215 0 163.396 0 0Z" fill="#71A630" fill-rule="evenodd" transform="matrix(-1 -8.74228e-08 -8.74228e-08 1 544 195)"/>
        <text fill="#E2F0D9" font-family="Whitney,Whitney_MSFontService,sans-serif" font-weight="700" font-size="128" transform="translate(109.902 353)">ICONS<tspan fill="#E1E5E7" x="273.092" y="259">2.0</tspan>
        </text>
</svg>