<svg xmlns="http://www.w3.org/2000/svg" width="506" height="602" overflow="hidden"><defs/><defs><linearGradient id="b" x1="344.5" x2="936.5" y1="111.8" y2="609.2" gradientUnits="userSpaceOnUse" spreadMethod="pad"><stop offset="0" stop-color="#FF9D46"/><stop offset=".1" stop-color="#FF9A70"/><stop offset=".2" stop-color="#FF978A"/><stop offset=".3" stop-color="#FF92A1"/><stop offset=".4" stop-color="#FF8CB5"/><stop offset=".5" stop-color="#FF84C6"/><stop offset=".6" stop-color="#FF7BD4"/><stop offset=".7" stop-color="#FF71DF"/><stop offset=".8" stop-color="#FF65E7"/><stop offset=".9" stop-color="#FF58EB"/><stop offset="1" stop-color="#FF51EC"/></linearGradient><linearGradient id="c" x1="617.5" x2="658.5" y1="475.6" y2="658.4" gradientUnits="userSpaceOnUse" spreadMethod="pad"><stop offset="0" stop-color="#FE9856"/><stop offset=".1" stop-color="#FE9775"/><stop offset=".2" stop-color="#FD9591"/><stop offset=".3" stop-color="#FC91AB"/><stop offset=".4" stop-color="#FB8DC1"/><stop offset=".5" stop-color="#F987D5"/><stop offset=".6" stop-color="#F781E4"/><stop offset=".7" stop-color="#F57AF0"/><stop offset=".8" stop-color="#F372F9"/><stop offset=".9" stop-color="#F069FE"/><stop offset="1" stop-color="#EF64FF"/></linearGradient></defs><g fill-rule="evenodd" transform="translate(-387 -59)"><path fill="#232737" stroke="url(#b)" stroke-miterlimit="8" stroke-width="21" d="M398.5 70.5h242l242 242v338h-484z"/><path fill="url(#c)" d="M468.7 538.6L455 578h26.5zM777 520.5h75v15.3h-27.5v77h-20v-77H777zm-73.2 0h61.9v15h-42.1v22H763v15.1h-39.4v24.9H767v15.3h-63.2zm-246.4 0H481l32 92.3h-19.9l-6.6-19.9h-36.6l-7 20H424zm193-1.5c10.2 0 18.3 2.4 24.2 7.2 5.9 4.8 8.8 11.5 8.8 20.1v.6h-19v-.6c-.4-4.2-1.8-7.5-4.4-9.9a15 15 0 00-10.6-3.5c-4.4 0-8 1.1-11 3.3a11 11 0 00-4.2 9.2c0 4.4 2 7.4 6 9.2 4.2 1.7 10.7 3.6 19.6 5.5 8.9 2 15.5 5 19.8 9.1 4.3 4.2 6.4 9.4 6.4 15.8a26 26 0 01-10.9 21.7A45.3 45.3 0 01647 615c-12.5 0-21.6-2.6-27.5-7.8-5.8-5.1-8.7-13.1-8.7-23.9H631v.8c0 5.8 1.4 10 4.3 12.7 3 2.6 7.1 4 12.5 4 5.1 0 9.3-1.2 12.6-3.5a11 11 0 004.9-9.5c0-3.4-1.2-6-3.5-7.5a32.2 32.2 0 00-10.1-3.9l-3.3-.7a93.5 93.5 0 01-22.4-7.9 24.1 24.1 0 01-9.6-9 23 23 0 01-2.7-11c.1-9.2 3.5-16.3 10-21.3a43 43 0 0126.6-7.5zm-88 0c10.2 0 18.3 2.4 24.2 7.2 6 4.8 8.9 11.5 8.9 20.1v.6h-19v-.6c-.4-4.2-2-7.5-4.5-9.9a15 15 0 00-10.6-3.5c-4.4 0-8 1.1-10.9 3.3a11 11 0 00-4.3 9.2c0 4.4 2 7.4 6.1 9.2 4.1 1.7 10.6 3.6 19.5 5.5 9 2 15.5 5 19.8 9.1 4.3 4.2 6.4 9.4 6.4 15.8a26 26 0 01-10.8 21.7A45.3 45.3 0 01559 615c-12.4 0-21.6-2.6-27.4-7.8-5.9-5.1-8.8-13.1-8.8-23.9H543v.8c0 5.8 1.5 10 4.4 12.7 2.9 2.6 7 4 12.4 4 5.2 0 9.4-1.2 12.6-3.5a11 11 0 005-9.5c0-3.4-1.2-6-3.5-7.5a32.2 32.2 0 00-10.2-3.9l-3.3-.7a93.5 93.5 0 01-22.3-7.9 24.1 24.1 0 01-9.6-9 23 23 0 01-2.7-11c0-9.2 3.4-16.3 10-21.3a43 43 0 0126.6-7.5z"/></g></svg>